<svg width="17" height="17" viewBox="0 0 17 17" fill="none" xmlns="http://www.w3.org/2000/svg">
<path d="M16.0967 8.06905C16.097 6.94579 15.4766 5.92526 14.4974 5.40313C14.7922 4.39557 14.5531 3.23975 13.7338 2.41939C12.9392 1.62557 11.7782 1.3419 10.7162 1.66577C10.2014 0.731266 9.20742 0.0966797 8.06732 0.0966797C6.945 0.0966797 5.92547 0.715811 5.40295 1.69358C4.37957 1.39601 3.22789 1.64953 2.42171 2.45417C1.6248 3.24953 1.34113 4.41127 1.66654 5.47484L1.66658 5.47574C0.733663 5.98795 0.0975395 6.97608 0.0966806 8.12378C0.0958314 9.24756 0.716246 10.2686 1.69587 10.791C1.39835 11.8143 1.64894 12.9619 2.4587 13.7726C3.24337 14.5581 4.39865 14.8555 5.47538 14.5277C5.98687 15.4586 6.974 16.0961 8.12355 16.0967H8.12521C9.24854 16.0966 10.2691 15.4759 10.7909 14.4962C11.8358 14.7996 12.9814 14.5252 13.7728 13.7344C14.5675 12.9404 14.8505 11.78 14.5272 10.7183C15.4563 10.2079 16.0964 9.22171 16.0967 8.06905ZM13.3512 2.80199C13.8196 3.2704 14.077 3.89339 14.077 4.55581C14.077 5.84815 13.1291 6.53463 12.9021 6.66363C12.6205 6.82366 12.383 6.87782 12.1338 7.12585C11.7372 7.52367 11.6446 8.10501 11.847 8.58355C11.4288 8.55882 11.0671 8.61124 10.6861 8.73049C10.3958 7.68131 10.8086 6.47744 11.8602 5.90692C12.1094 5.77167 12.3201 5.7168 12.5396 5.49726C13.0593 4.97913 13.0613 4.13537 12.5404 3.61281C12.1292 3.20291 11.5425 3.13111 11.0818 3.32605C11.1072 2.95879 11.0586 2.53902 10.9349 2.16818C10.9349 2.16741 10.9342 2.16663 10.9342 2.16586C11.7898 1.92856 12.7143 2.16509 13.3512 2.80199ZM8.97189 10.1767C8.4159 10.014 7.81638 10.0121 7.24508 10.186C6.96704 9.67797 6.54465 9.25282 6.01803 8.97177C6.18054 8.41617 6.18249 7.81709 6.00893 7.24619C6.51793 6.96755 6.94388 6.54405 7.22479 6.0159C7.49919 6.09629 7.78363 6.13725 8.07039 6.13725C8.36412 6.13725 8.65939 6.09475 8.9477 6.00663C9.22595 6.51523 9.64954 6.94035 10.1767 7.2217C10.0136 7.77745 10.0121 8.3775 10.186 8.94871C9.6779 9.22691 9.25278 9.64978 8.97189 10.1767ZM8.06732 0.637742C9.62755 0.637742 10.8374 2.08126 10.4859 3.66692C10.4859 3.79857 10.2648 4.14483 10.2648 4.55503C10.2648 5.11156 10.608 5.58924 11.0926 5.78866C10.84 6.01317 10.6161 6.27889 10.4457 6.58402C10.441 6.58873 10.3854 6.69523 10.3761 6.71388C9.35942 6.13952 8.88447 4.9334 9.23136 3.81841C9.23136 3.8161 9.23214 3.81455 9.23368 3.81224C9.29814 3.61877 9.39986 3.41452 9.39986 3.11735C9.39986 2.38229 8.80237 1.78479 8.06732 1.78479C7.51233 1.78479 7.03543 2.12567 6.83523 2.60953C6.57157 2.31282 6.27495 2.07459 5.91079 1.89301C6.34827 1.12238 7.1676 0.637742 8.06732 0.637742ZM2.80354 2.83755C3.96187 1.68184 5.89752 1.95104 6.71079 3.37088C6.82949 3.58913 6.89714 3.82776 7.12663 4.05726C7.51929 4.45069 8.099 4.5473 8.58287 4.34634C8.54668 4.95376 8.6943 5.39338 8.73049 5.50653C7.61373 5.81446 6.41029 5.31799 5.87931 4.2772C5.76805 4.05912 5.70549 3.85813 5.49802 3.65069C4.97816 3.12922 4.13506 3.12928 3.61359 3.64914C3.21551 4.046 3.12434 4.62947 3.32606 5.10846C2.93494 5.08219 2.53843 5.13011 2.16509 5.25301C1.92856 4.39812 2.16586 3.47368 2.80354 2.83755ZM1.89491 10.284C1.12265 9.84668 0.637064 9.02542 0.637743 8.12423C0.639065 6.46811 2.26929 5.19284 3.96964 5.80358C4.17014 5.87567 4.33476 5.92994 4.55796 5.92994C5.11444 5.92994 5.59256 5.58706 5.79168 5.10144C5.87106 5.19041 6.18872 5.55411 6.71579 5.82019C6.12336 6.86582 4.85496 7.34418 3.69911 6.9196C3.53071 6.85778 3.35657 6.79377 3.11819 6.79361H3.11714C2.38096 6.79361 1.78526 7.38889 1.78463 8.12506C1.78418 8.68164 2.12697 9.15983 2.61253 9.35931C2.30176 9.63373 2.06327 9.94938 1.89491 10.284ZM5.25784 14.0282C4.40254 14.2652 3.47832 14.0278 2.84155 13.3902C1.70714 12.2545 1.93064 10.3477 3.32322 9.51087C3.58352 9.36367 3.82152 9.30614 4.06075 9.06724C4.45965 8.66882 4.54845 8.08892 4.34959 7.61163C4.7429 7.63473 5.1194 7.59158 5.50935 7.46315C5.82248 8.59446 5.29651 9.78747 4.25387 10.3268C4.03686 10.4316 3.85199 10.498 3.6542 10.6955C3.13435 11.2147 3.13382 12.0601 3.65299 12.5799C4.05608 12.9835 4.63969 13.0655 5.11114 12.8679C5.08681 13.2625 5.13179 13.6454 5.25674 14.0246C5.25714 14.0258 5.25744 14.027 5.25784 14.0282ZM10.2834 14.298C9.84646 15.0699 9.02588 15.5556 8.12514 15.5556H8.12386C6.51193 15.5549 5.33072 14.0422 5.72053 12.4732C5.8005 12.1842 5.92829 11.9753 5.9285 11.637C5.92874 11.0713 5.57968 10.5994 5.10293 10.4034C5.39033 10.148 5.62978 9.85118 5.81822 9.4784C6.83519 10.0544 7.30839 11.2629 6.96013 12.3786C6.88464 12.5985 6.79282 12.7858 6.79264 13.0756C6.79232 13.8122 7.38825 14.4085 8.1248 14.4088C8.68921 14.4088 9.16317 14.0599 9.35899 13.5812C9.63269 13.8911 9.94728 14.1286 10.2834 14.298ZM13.3904 13.3517C12.2528 14.4884 10.3481 14.2582 9.51214 12.8735C9.36348 12.6118 9.30652 12.3734 9.06687 12.1336C8.671 11.7374 8.09052 11.6459 7.61023 11.8463C7.63343 11.4554 7.58754 11.0664 7.46232 10.6854C8.58388 10.3743 9.76755 10.8878 10.3143 11.9153C10.4192 12.1274 10.4873 12.3316 10.6953 12.5396C11.2146 13.0594 12.0601 13.0597 12.5797 12.5404C12.9773 12.1431 13.0685 11.5615 12.8673 11.0822C13.2635 11.1067 13.6472 11.0614 14.0278 10.9356C14.2649 11.7906 14.0279 12.7147 13.3904 13.3517ZM12.4821 10.4753C12.1888 10.3956 11.9788 10.2652 11.637 10.2652C11.0776 10.2652 10.6014 10.6094 10.4036 11.092C10.13 10.784 9.80971 10.5429 9.4787 10.376C10.0456 9.37457 11.2332 8.8774 12.3201 9.21436C12.6002 9.3012 12.7828 9.40071 13.076 9.4008C13.8106 9.4008 14.4085 8.8032 14.4087 8.0686C14.4089 7.50395 14.0598 7.03 13.5808 6.83437C13.8763 6.57189 14.1167 6.27244 14.2981 5.91055C15.07 6.34765 15.5558 7.16805 15.5556 8.0689C15.5553 9.6695 14.0532 10.8587 12.4821 10.4753ZM8.91658 13.0758C8.91658 13.5129 8.56224 13.8672 8.12514 13.8672C7.68804 13.8672 7.3337 13.5129 7.3337 13.0758C7.3337 12.6387 7.68804 12.2843 8.12514 12.2843C8.56224 12.2843 8.91658 12.6387 8.91658 13.0758ZM5.3863 11.6361C5.3863 12.0732 5.03196 12.4275 4.59486 12.4275C4.15776 12.4275 3.80342 12.0732 3.80342 11.6361C3.80342 11.199 4.15776 10.8446 4.59486 10.8446C5.03196 10.8446 5.3863 11.199 5.3863 11.6361ZM3.90956 8.12608C3.90956 8.56318 3.55522 8.91752 3.11812 8.91752C2.68102 8.91752 2.32668 8.56318 2.32668 8.12608C2.32668 7.68898 2.68102 7.33464 3.11812 7.33464C3.55522 7.33464 3.90956 7.68898 3.90956 8.12608ZM5.34895 4.59743C5.34895 5.03453 4.99461 5.38887 4.55751 5.38887C4.12041 5.38887 3.76606 5.03453 3.76606 4.59743C3.76606 4.16033 4.12041 3.80599 4.55751 3.80599C4.99461 3.80599 5.34895 4.16033 5.34895 4.59743ZM8.8588 3.11735C8.8588 3.55445 8.50446 3.90879 8.06736 3.90879C7.63026 3.90879 7.27592 3.55445 7.27592 3.11735C7.27592 2.68025 7.63026 2.32591 8.06736 2.32591C8.50446 2.32591 8.8588 2.68025 8.8588 3.11735ZM12.3888 4.55509C12.3888 4.99219 12.0345 5.34653 11.5974 5.34653C11.1603 5.34653 10.8059 4.99219 10.8059 4.55509C10.8059 4.11799 11.1603 3.76365 11.5974 3.76365C12.0345 3.76365 12.3888 4.11799 12.3888 4.55509ZM13.8674 8.0683C13.8674 8.5054 13.5131 8.85974 13.076 8.85974C12.6389 8.85974 12.2846 8.5054 12.2846 8.0683C12.2846 7.6312 12.6389 7.27686 13.076 7.27686C13.5131 7.27686 13.8674 7.6312 13.8674 8.0683ZM12.4289 11.5976C12.4289 12.0347 12.0745 12.389 11.6374 12.389C11.2003 12.389 10.846 12.0347 10.846 11.5976C10.846 11.1605 11.2003 10.8061 11.6374 10.8061C12.0745 10.8061 12.4289 11.1605 12.4289 11.5976Z" fill="black" stroke="black" stroke-width="0.193333"/>
</svg>
